<svg width="64" height="64" viewBox="0 0 64 64" xmlns="http://www.w3.org/2000/svg">
  <defs>
    <radialGradient id="ocean" cx="35%" cy="35%" r="75%">
      <stop offset="0%" stop-color="#3a8fd1"/>
      <stop offset="70%" stop-color="#1e5b8f"/>
      <stop offset="100%" stop-color="#0d2c4a"/>
    </radialGradient>
    <radialGradient id="glow" cx="50%" cy="50%" r="50%">
      <stop offset="80%" stop-color="#1a3d2a" stop-opacity="0"/>
      <stop offset="100%" stop-color="#f5d97a" stop-opacity="0.35"/>
    </radialGradient>
  </defs>
  <rect width="64" height="64" rx="14" fill="#0a1f33"/>
  <circle cx="32" cy="32" r="22" fill="url(#ocean)"/>
  <path d="M16 28c3-1 6 1 9 0s5-3 8-2 4 4 7 3 4-2 6-1" stroke="#2c7a4a" stroke-width="0" fill="none"/>
  <path d="M14 30c2 0 4 2 7 2s4-2 7-1 3 3 6 3 5-3 8-2 5 2 8 1" fill="#2e8b57"/>
  <path d="M19 22c2-1 4 0 6 1s3 0 5 0 3-2 5-1l1 2c-2 1-4 0-6 0s-4 2-6 1-3-2-5-3z" fill="#3aa370"/>
  <path d="M22 42c3 0 5-2 8-2s5 2 8 1 4-2 7-1l1 2c-3 0-5 2-8 2s-5-2-8-1-5 1-8-1z" fill="#2e8b57"/>
  <path d="M40 14c2 0 4 1 5 3s0 4-1 5-1 0-2-1z" fill="#3aa370"/>
  <circle cx="32" cy="32" r="22" fill="url(#glow)"/>
  <circle cx="25" cy="24" r="6" fill="white" opacity="0.18"/>
</svg>
